<?xml version="1.0" encoding="UTF-8"?>
<svg version="1.1" xmlns="http://www.w3.org/2000/svg" width="1376" height="712">
<path d="M0 0 C9.9 0 19.8 0 30 0 C29.3738016 5.63578564 28.72805681 10.83984986 27.60131836 16.33642578 C27.46462234 17.00924591 27.32792633 17.68206604 27.18708801 18.37527466 C26.89361045 19.8176414 26.5983823 21.25965291 26.30152702 22.70132828 C25.83100403 24.98827744 25.36602111 27.27629261 24.90248108 29.56466675 C23.58492169 36.06439394 22.25797598 42.56218958 20.92651367 49.05908203 C20.10913529 53.04942384 19.29840612 57.0410715 18.49160957 61.03356552 C18.18441335 62.54666428 17.87464145 64.0592426 17.56217766 65.57126236 C17.12500481 67.6870853 16.69628565 69.8044671 16.26928711 71.92236328 C16.02359482 73.12321564 15.77790253 74.32406799 15.52476501 75.56130981 C14.82399721 79.57356426 14.82399721 79.57356426 15 86 C53.115 86.495 53.115 86.495 92 87 C91.39447466 93.66077879 90.80155624 100.03680381 89.5625 106.5625 C89.44068359 107.25923828 89.31886719 107.95597656 89.19335938 108.67382812 C88.2437965 113.7562035 88.2437965 113.7562035 86 116 C83.53050928 116.18773265 81.17420017 116.25196303 78.70458984 116.22705078 C77.95327286 116.22734283 77.20195587 116.22763489 76.4278717 116.22793579 C73.93877708 116.22653987 71.44997997 116.21096658 68.9609375 116.1953125 C67.23743859 116.1915833 65.51393757 116.18873589 63.79043579 116.18673706 C59.24969653 116.1790933 54.7090848 116.15943848 50.168396 116.1373291 C45.53676072 116.11688664 40.90510487 116.10773877 36.2734375 116.09765625 C27.18223557 116.07619325 18.09112838 116.04204839 9 116 C7.33352214 120.0108071 6.36348754 123.75684684 5.58203125 128.0390625 C5.30147297 129.5491612 5.0208713 131.05925185 4.74023438 132.56933594 C4.59030029 133.38688354 4.44036621 134.20443115 4.28588867 135.04675293 C1.39069671 150.81502252 -1.69163529 166.54325775 -4.86328125 182.2578125 C-5.20544177 183.95532783 -5.54757937 185.65284778 -5.88969421 187.35037231 C-7.44074818 195.04230216 -8.99583551 202.73337271 -10.56167126 210.42230797 C-11.2219437 213.67058427 -11.8775154 216.91979741 -12.53198814 220.16924667 C-12.84109159 221.69829797 -13.15229156 223.22692713 -13.46570778 224.75510025 C-13.89912689 226.8692251 -14.32535415 228.9846841 -14.75 231.10058594 C-15.11351562 232.88912994 -15.11351562 232.88912994 -15.484375 234.71380615 C-15.97999314 237.87249182 -16.09704077 240.80925387 -16 244 C-1.53350929 244.07064033 12.932954 244.12305315 27.39958286 244.15543652 C34.11939823 244.17078861 40.83908937 244.19203866 47.55883789 244.22631836 C54.06226159 244.25928111 60.56557374 244.27692962 67.06907463 244.28463173 C69.53135874 244.29010979 71.99363781 244.30080347 74.45587349 244.31719017 C120.89809724 244.61354899 166.10496638 233.19464257 200.3125 200.125 C207.92539356 192.5403107 214.03250486 183.90313499 220 175 C221.03447266 173.47632813 221.03447266 173.47632813 222.08984375 171.921875 C228.98502871 160.97713696 232.93008013 148.20975962 237 136 C246.9 136 256.8 136 267 136 C265 146 265 146 263.375 150.8125 C258.43385286 167.10561596 264.89584917 185.07727264 272.3359375 199.609375 C276.0438916 206.20584584 280.79039207 211.54980627 286 217 C286.52980469 217.60457031 287.05960938 218.20914063 287.60546875 218.83203125 C301.06455561 233.60588752 324.70783572 243.98963576 344.40258789 245.14038086 C363.73960233 245.83575731 378.87954828 243.88997493 394.34375 231.0546875 C396.37283504 229.12705671 398.19852138 227.14100341 400 225 C400.59167969 224.3090625 401.18335938 223.618125 401.79296875 222.90625 C407.82139681 215.13450169 410.65197988 206.15581011 414 197 C424.23 197 434.46 197 445 197 C440.40675716 213.94748219 433.23885504 231.09147176 421 244 C420.19304688 244.89589844 419.38609375 245.79179687 418.5546875 246.71484375 C404.7983277 261.33348266 387.40034949 269.53883473 368 274 C366.85337891 274.28810547 366.85337891 274.28810547 365.68359375 274.58203125 C349.7694493 277.06065346 334.30424612 274.29024715 319 270 C318.31389648 269.81840332 317.62779297 269.63680664 316.92089844 269.44970703 C297.89671217 264.35341833 280.87031475 253.66399875 266 241 C264.68128906 239.88044922 264.68128906 239.88044922 263.3359375 238.73828125 C252.53116532 228.71618692 245.07277581 215.26476628 239 202 C238.01 202 237.02 202 236 202 C234.14215188 203.94917983 234.14215188 203.94917983 232.25 206.5625 C219.25424849 222.93377139 203.93625177 235.36768581 186 246 C185.2059375 246.51046875 184.411875 247.0209375 183.59375 247.546875 C165.04962286 259.35922996 142.94320925 265.98943441 121.5625 270.375 C120.86850098 270.5184082 120.17450195 270.66181641 119.45947266 270.80957031 C103.37275886 273.82239299 87.23462996 274.2883778 70.9230957 274.22705078 C68.78238938 274.22648506 66.64168267 274.22680636 64.50097656 274.22793579 C58.75225009 274.22850403 53.00360896 274.2168364 47.25490212 274.20278788 C41.22382824 274.19019133 35.19275188 274.18910304 29.16166687 274.18673706 C17.7689643 274.18054831 6.37630063 274.16417313 -5.0163849 274.14403808 C-17.99843522 274.12159751 -30.98048751 274.11066523 -43.96255243 274.10064721 C-70.64172309 274.07980429 -97.32085935 274.04467954 -124 274 C-123.73699062 271.79072119 -123.46401565 269.58262902 -123.1875 267.375 C-123.03667969 266.14523437 -122.88585937 264.91546875 -122.73046875 263.6484375 C-121.74636942 257.38598719 -120.32826793 251.19858368 -119 245 C-83.855 244.505 -83.855 244.505 -48 244 C-45.97875 233.584375 -43.9575 223.16875 -41.875 212.4375 C-40.58293261 205.78888557 -39.29068847 199.14030968 -37.99609375 192.4921875 C-37.7529736 191.2436883 -37.7529736 191.2436883 -37.50494194 189.96996689 C-34.00418688 171.99653288 -30.48007688 154.02773586 -26.9375 136.0625 C-26.79423405 135.33592445 -26.65096809 134.60934891 -26.50336075 133.86075592 C-21.79106169 109.96669245 -17.02621056 86.08329675 -12.2388916 62.2041626 C-8.08485935 41.48329713 -4.00130836 20.75097125 0 0 Z " fill="#2B1B4E" transform="translate(241,63)"/>
<path d="M0 0 C7.02138034 6.61799762 11.99905094 15.40159271 13.17578125 25.05078125 C13.24701914 28.05294943 13.23464902 31.04852511 13.17578125 34.05078125 C12.20640625 34.41429687 11.23703125 34.7778125 10.23828125 35.15234375 C9.59785889 35.39267334 8.95743652 35.63300293 8.29760742 35.88061523 C6.87113996 36.41519175 5.44421087 36.94853795 4.0168457 37.48071289 C0.21834481 38.89895865 -3.57012704 40.33702447 -7.34375 41.8203125 C-8.06369141 42.09987793 -8.78363281 42.37944336 -9.52539062 42.66748047 C-10.91373362 43.20721326 -12.29927418 43.754221 -13.68164062 44.30908203 C-18.48692153 46.16321366 -18.48692153 46.16321366 -21.82421875 45.05078125 C-21.11265625 43.93703125 -21.11265625 43.93703125 -20.38671875 42.80078125 C-17.71099491 38.0915073 -17.09402455 33.45421829 -17.82421875 28.05078125 C-20.43290706 22.62470957 -23.55512875 20.54666598 -28.82421875 18.05078125 C-41.06488867 15.05022742 -52.95383584 17.46334109 -63.63671875 23.86328125 C-75.68935247 31.7786581 -84.02506448 41.14909884 -88.82421875 55.05078125 C-89.15421875 57.36078125 -89.48421875 59.67078125 -89.82421875 62.05078125 C-67.71421875 62.05078125 -45.60421875 62.05078125 -22.82421875 62.05078125 C-26.82421875 87.05078125 -26.82421875 87.05078125 -27.82421875 91.05078125 C-50.59421875 91.38078125 -73.36421875 91.71078125 -96.82421875 92.05078125 C-99.23797315 104.11955327 -100.01086312 115.49193116 -100.00952148 127.74780273 C-100.01171176 129.98115005 -100.02994997 132.21400484 -100.04882812 134.44726562 C-100.08056622 142.84809576 -99.58121195 150.79341096 -97.82421875 159.05078125 C-87.82545438 156.80715607 -80.6761169 143.98492443 -75.35009766 135.77978516 C-72.08778641 130.588639 -68.94413683 125.328336 -65.82421875 120.05078125 C-64.82516678 118.38354613 -63.82567652 116.71657239 -62.82421875 115.05078125 C-57.80512842 116.63869695 -52.98770674 118.58331648 -48.13671875 120.61328125 C-46.63319273 121.24049559 -45.12930087 121.86683383 -43.625 122.4921875 C-42.96669189 122.76748291 -42.30838379 123.04277832 -41.63012695 123.32641602 C-40.05049591 123.96001955 -38.4388453 124.5125724 -36.82421875 125.05078125 C-37.38376762 128.55558495 -38.21993437 131.12127041 -40.08984375 134.1328125 C-40.56139893 134.89231201 -41.0329541 135.65181152 -41.51879883 136.43432617 C-42.0320874 137.23588135 -42.54537598 138.03743652 -43.07421875 138.86328125 C-43.60490967 139.69770752 -44.13560059 140.53213379 -44.68237305 141.3918457 C-50.12910396 149.7877938 -56.31336384 157.46568198 -62.82421875 165.05078125 C-63.46875 165.81390625 -64.11328125 166.57703125 -64.77734375 167.36328125 C-66.42994936 169.288647 -68.11684951 171.17373556 -69.82421875 173.05078125 C-70.28747559 173.56302246 -70.75073242 174.07526367 -71.22802734 174.60302734 C-72.83886641 176.38148546 -74.45556315 178.15443593 -76.07421875 179.92578125 C-76.85454468 180.78465942 -76.85454468 180.78465942 -77.65063477 181.66088867 C-79.93539053 184.14399586 -82.00278139 186.16982301 -84.82421875 188.05078125 C-84.40430634 192.91997835 -82.01441318 195.59249851 -78.76171875 198.98828125 C-78.01245117 199.78214233 -78.01245117 199.78214233 -77.24804688 200.59204102 C-67.43065803 210.81113624 -56.07748847 215.462125 -42.82421875 220.05078125 C-43.46899956 226.39483151 -44.78668206 232.38369305 -46.38671875 238.55078125 C-46.62068359 239.46859375 -46.85464844 240.38640625 -47.09570312 241.33203125 C-47.6675559 243.57276048 -48.24380168 245.81225813 -48.82421875 248.05078125 C-55.60412185 247.55435906 -61.22468996 246.1675789 -67.51171875 243.61328125 C-68.3816748 243.26128662 -69.25163086 242.90929199 -70.14794922 242.54663086 C-78.28634821 239.10300046 -85.01962476 234.63716148 -91.82421875 229.05078125 C-92.77039063 228.28507813 -93.7165625 227.519375 -94.69140625 226.73046875 C-100.14126551 222.08919395 -104.2259434 217.23805959 -107.82421875 211.05078125 C-112.98623671 211.52589236 -116.26386609 212.57162881 -120.57421875 215.42578125 C-122.23324219 216.48732422 -122.23324219 216.48732422 -123.92578125 217.5703125 C-124.53583008 217.9617041 -125.14587891 218.3530957 -125.77441406 218.75634766 C-129.78499158 221.28899201 -133.86322914 223.70488533 -137.94921875 226.11328125 C-138.77905273 226.61456543 -139.60888672 227.11584961 -140.46386719 227.63232422 C-141.24536133 228.0913916 -142.02685547 228.55045898 -142.83203125 229.0234375 C-143.87834717 229.64617554 -143.87834717 229.64617554 -144.94580078 230.28149414 C-146.82421875 231.05078125 -146.82421875 231.05078125 -149.82421875 230.05078125 C-150.79150391 228.27246094 -150.79150391 228.27246094 -151.61328125 225.97265625 C-151.91492188 225.14121094 -152.2165625 224.30976563 -152.52734375 223.453125 C-152.8315625 222.57785156 -153.13578125 221.70257813 -153.44921875 220.80078125 C-153.76117187 219.94097656 -154.073125 219.08117187 -154.39453125 218.1953125 C-155.83773625 214.15807094 -157.05096671 210.27615127 -157.82421875 206.05078125 C-157.25614502 205.73439697 -156.68807129 205.4180127 -156.1027832 205.09204102 C-144.98104263 198.87632246 -134.10084435 192.60095516 -123.82421875 185.05078125 C-124.57763818 178.96905536 -126.08236961 173.32596557 -127.7890625 167.453125 C-130.5684831 156.49176845 -131.14972975 145.49188342 -131.08496094 134.24951172 C-131.07436204 132.0801103 -131.08486339 129.91156204 -131.09765625 127.7421875 C-131.0760788 115.64802505 -129.93112553 104.2267558 -128.82421875 92.05078125 C-171.72421875 92.05078125 -214.62421875 92.05078125 -258.82421875 92.05078125 C-261.79421875 107.56078125 -264.76421875 123.07078125 -267.82421875 139.05078125 C-271.96467832 157.07770521 -275.94120748 174.34255118 -283.82421875 191.05078125 C-284.32791992 192.13238525 -284.32791992 192.13238525 -284.84179688 193.23583984 C-294.02611554 212.60220439 -307.26751547 230.33346887 -323.82421875 244.05078125 C-324.81421875 244.38078125 -325.80421875 244.71078125 -326.82421875 245.05078125 C-329.08269391 242.85097951 -331.32935579 240.63946556 -333.57421875 238.42578125 C-334.2084375 237.80832031 -334.84265625 237.19085938 -335.49609375 236.5546875 C-339.14367294 232.94510393 -342.15256596 229.43606992 -344.82421875 225.05078125 C-344.31560303 224.55787598 -343.8069873 224.0649707 -343.28295898 223.55712891 C-340.93428908 221.27166268 -338.5980425 218.97386431 -336.26171875 216.67578125 C-335.46185547 215.90105469 -334.66199219 215.12632812 -333.83789062 214.328125 C-328.42339677 208.97993107 -323.97052786 203.42590956 -319.82421875 197.05078125 C-319.29554199 196.25285156 -318.76686523 195.45492187 -318.22216797 194.6328125 C-314.97303795 189.64846773 -312.54930116 184.3986602 -310.26171875 178.92578125 C-309.99294922 178.28825928 -309.72417969 177.6507373 -309.44726562 176.99389648 C-294.92697694 141.097967 -290.68611079 100.40997122 -283.82421875 63.05078125 C-230.69421875 62.72078125 -177.56421875 62.39078125 -122.82421875 62.05078125 C-120.84421875 56.77078125 -118.86421875 51.49078125 -116.82421875 46.05078125 C-107.95700038 26.81059044 -95.95277586 9.17622921 -76.82421875 -0.94921875 C-75.88835937 -1.44977783 -75.88835937 -1.44977783 -74.93359375 -1.96044922 C-51.25116223 -14.44005113 -22.0293375 -17.76804941 0 0 Z " fill="#2B1B4E" transform="translate(973.82421875,11.94921875)"/>
<path d="M0 0 C-0.0721875 1.10988281 -0.144375 2.21976562 -0.21875 3.36328125 C-1.25000493 20.90196797 -1.09677424 38.43919677 -1 56 C16.73812988 56.36818605 34.34796085 55.28546955 52.03704834 54.14575195 C55.87921558 53.89964548 59.72185399 53.66112595 63.56445312 53.421875 C71.04343635 52.9551368 78.52187463 52.48030813 86 52 C85.55034493 55.52199765 85.08870862 59.04232733 84.625 62.5625 C84.49867188 63.55314453 84.37234375 64.54378906 84.2421875 65.56445312 C84.11328125 66.53447266 83.984375 67.50449219 83.8515625 68.50390625 C83.67874756 69.83143921 83.67874756 69.83143921 83.50244141 71.18579102 C82.90398259 74.53780015 81.97765219 77.74057112 81 81 C80.11574341 81.04789169 79.23148682 81.09578339 78.32043457 81.14512634 C69.96400004 81.59821473 61.60771824 82.054007 53.25159454 82.51279354 C48.95622007 82.74853328 44.66079483 82.98324811 40.36523438 83.21557617 C36.21539344 83.44006146 32.06571121 83.66729711 27.91612244 83.89639473 C26.33745102 83.98307671 24.75872599 84.06878805 23.1799469 84.15348625 C20.95900511 84.2728058 18.73828366 84.39565847 16.51757812 84.51928711 C15.25627075 84.58812607 13.99496338 84.65696503 12.69543457 84.72789001 C8.76752727 85.01711792 4.90337674 85.4803585 1 86 C0.90071918 93.75493514 0.93940512 101.31068715 2 109 C11.51694707 109.11451761 20.90020634 108.79828657 30.39453125 108.125 C32.40067713 107.98932555 34.40682324 107.85365433 36.41298199 107.71817017 C39.1801825 107.53019582 41.94708592 107.3380439 44.71398926 107.14575195 C49.57767124 106.80794518 54.44157165 106.47341946 59.30583191 106.14404297 C61.88377094 105.96906089 64.46151399 105.79115874 67.03901672 105.60986328 C73.37785809 105.17798122 79.64651 104.9045933 86 105 C84.49241324 114.36477423 82.77356753 123.68285855 81 133 C77.89130155 134.03623282 75.39144552 134.26298948 72.12670898 134.46484375 C70.31353432 134.58001343 70.31353432 134.58001343 68.46372986 134.69750977 C67.15440994 134.77670654 65.84509003 134.85590332 64.49609375 134.9375 C63.13425705 135.0229526 61.77244601 135.10881505 60.41065979 135.19506836 C56.81932948 135.42167465 53.227736 135.64377811 49.63604736 135.86462402 C43.91283059 136.2170322 38.18997564 136.57518617 32.46724129 136.93533325 C30.481238 137.05952074 28.49506833 137.18103834 26.50889587 137.30249023 C19.6545495 137.73006142 12.82652015 138.24508688 6 139 C6.56954414 148.16694858 8.77174622 156.77449442 11.0625 165.625 C11.44402092 167.12092519 11.82488543 168.61701794 12.20507812 170.11328125 C13.12916331 173.74414957 14.06209609 177.37267338 15 181 C19.75323279 180.2257041 22.67950472 178.35859138 26.375 175.375 C27.27496704 174.65824097 27.27496704 174.65824097 28.19311523 173.92700195 C37.63286029 166.22952857 46.33464872 157.4621444 54 148 C59.36789249 150.01703705 63.97077571 152.90104204 68.8125 155.9375 C69.69615234 156.47568359 70.57980469 157.01386719 71.49023438 157.56835938 C72.32490234 158.09107422 73.15957031 158.61378906 74.01953125 159.15234375 C74.78370361 159.62663818 75.54787598 160.10093262 76.33520508 160.58959961 C76.8845874 161.05503174 77.43396973 161.52046387 78 162 C78 167.95275671 71.07996267 172.89442621 67 177 C58.38544026 185.47171628 49.49515936 193.52601545 40 201 C38.10363144 202.52016589 36.20777871 204.04097555 34.3125 205.5625 C32.87550532 206.70896699 31.43820494 207.8550516 30 209 C31.17441316 221.06442606 44.91397256 233.82891897 53.91015625 241.47265625 C56.87982802 243.75370848 59.89905258 245.90125992 63 248 C64.00675781 248.68835938 65.01351563 249.37671875 66.05078125 250.0859375 C78.65781129 258.28129202 92.15018512 263.60486857 107 266 C108.06089844 266.17660156 109.12179687 266.35320312 110.21484375 266.53515625 C115.11753721 267.13724141 120.00467852 267.35659694 124.9375 267.5625 C128.258125 267.706875 131.57875 267.85125 135 268 C135.33 277.9 135.66 287.8 136 298 C102.64788636 299.30792603 69.37589354 290.17653043 42 271 C41.42314453 270.59668457 40.84628906 270.19336914 40.25195312 269.77783203 C25.58232137 259.35533593 10.83804156 245.44142894 3 229 C-1.92846321 229.52619682 -5.20810184 231.0168905 -9.4375 233.5625 C-10.69723587 234.29934223 -11.95767348 235.03498585 -13.21875 235.76953125 C-15.53669601 237.13320141 -17.84785856 238.50682634 -20.15625 239.88671875 C-40.74490847 251.57813553 -71.26739998 265.73986195 -95 267 C-96.64954409 265.35045591 -96.46105944 263.27986133 -96.75390625 261.01171875 C-96.95209961 259.48708008 -96.95209961 259.48708008 -97.15429688 257.93164062 C-97.28900391 256.86107422 -97.42371094 255.79050781 -97.5625 254.6875 C-97.70107422 253.62853516 -97.83964844 252.56957031 -97.98242188 251.47851562 C-98.5222175 247.26917342 -99 243.2507433 -99 239 C-98.46858398 238.8548999 -97.93716797 238.7097998 -97.38964844 238.56030273 C-69.92901214 231.01303792 -45.14132391 221.11480104 -20.26757812 207.24365234 C-17.54571849 205.75084948 -14.79273015 204.35475154 -12 203 C-11.38449065 196.82404174 -13.63961901 191.70761308 -15.6875 186 C-20.80055297 171.25333108 -23.9729036 156.28215156 -27 141 C-45.91439411 141.59991553 -45.91439411 141.59991553 -64.8125 142.5625 C-72.55017174 143.04006781 -80.24838058 143.1028976 -88 143 C-87.71166535 140.58289672 -87.419358 138.16637164 -87.125 135.75 C-87.04636719 135.08742188 -86.96773437 134.42484375 -86.88671875 133.7421875 C-86.11440743 127.44487983 -85.04656574 121.27939446 -84 115 C-66.51 114.01 -49.02 113.02 -31 112 C-30.98618331 102.85763883 -30.98618331 102.85763883 -31.5 93.8125 C-31.5928125 92.70519531 -31.685625 91.59789062 -31.78125 90.45703125 C-31.88953125 89.24080078 -31.88953125 89.24080078 -32 88 C-38.41956126 87.87521371 -44.78202701 88.07510995 -51.1875 88.5 C-59.46677826 89.04422181 -67.70599704 89.10046572 -76 89 C-76.22384626 82.60545843 -75.41357019 76.81800562 -74.125 70.5625 C-73.95097656 69.65306641 -73.77695313 68.74363281 -73.59765625 67.80664062 C-73.42363281 66.94361328 -73.24960938 66.08058594 -73.0703125 65.19140625 C-72.91320801 64.40967041 -72.75610352 63.62793457 -72.59423828 62.82250977 C-72.39813965 62.22108154 -72.20204102 61.61965332 -72 61 C-69.47098256 59.73549128 -67.58694563 59.80797614 -64.7578125 59.71875 C-63.15679688 59.66267578 -63.15679688 59.66267578 -61.5234375 59.60546875 C-59.84121094 59.55326172 -59.84121094 59.55326172 -58.125 59.5 C-49.72108047 59.22987402 -41.37332406 58.77856229 -33 58 C-33.02320313 56.80632812 -33.04640625 55.61265625 -33.0703125 54.3828125 C-33.22598006 42.11645032 -32.77833414 29.92868166 -32.0625 17.6875 C-32.01893372 16.917547 -31.97536743 16.14759399 -31.93048096 15.35430908 C-31.80455515 13.15637926 -31.67139023 10.95903128 -31.53515625 8.76171875 C-31.456604 7.48256592 -31.37805176 6.20341309 -31.29711914 4.88549805 C-31 2 -31 2 -30 1 C-27.59752411 0.75521944 -25.22181201 0.57267684 -22.8125 0.4375 C-22.10158203 0.3950415 -21.39066406 0.35258301 -20.65820312 0.30883789 C-13.76879603 -0.07093533 -6.8993114 -0.09702157 0 0 Z " fill="#2B1B4E" transform="translate(1240,357)"/>
<path d="M0 0 C40.59 0 81.18 0 123 0 C113.75046468 48.56006041 113.75046468 48.56006041 109.70898438 69.03320312 C108.99722958 72.63903527 108.28752831 76.24526707 107.578125 79.8515625 C103.42891069 100.90994051 99.20933542 121.95332292 95 143 C64.64 143.66 34.28 144.32 3 145 C-2.34937336 169.2183933 -2.34937336 169.2183933 -7.375 193.5 C-7.62121094 194.71945312 -7.86742187 195.93890625 -8.12109375 197.1953125 C-9.30220195 203.12021592 -10.36048395 208.99152366 -11 215 C-6.1287921 214.34016947 -2.06689976 212.35461913 2.3359375 210.2890625 C3.13351471 209.9202597 3.93109192 209.55145691 4.75283813 209.17147827 C7.29593415 207.99436361 9.83554664 206.80994979 12.375 205.625 C14.90799843 204.44872378 17.44169446 203.27396685 19.97573853 202.09994507 C21.54923643 201.37032899 23.1220134 200.6391554 24.69393921 199.90615845 C29.09799805 197.85710516 33.52539731 195.89029285 38 194 C37.31797736 188.35145355 35.27484949 183.53554906 32.99609375 178.390625 C30.97103741 173.60412818 30.97103741 173.60412818 31.09863281 170.94262695 C32.45194892 168.02595949 34.30072274 167.63115345 37.2421875 166.45703125 C38.84126953 165.80637695 38.84126953 165.80637695 40.47265625 165.14257812 C41.59542969 164.70365234 42.71820313 164.26472656 43.875 163.8125 C45.54755859 163.13670898 45.54755859 163.13670898 47.25390625 162.44726562 C51.1459121 160.88154313 55.01960622 159.32679793 59 158 C62.14525267 164.59293347 64.95907377 171.28849984 67.65625 178.07421875 C68.00200073 178.94167221 68.34775146 179.80912567 68.70397949 180.7028656 C69.804793 183.46773229 70.90292433 186.23364817 72 189 C72.35610352 189.89781189 72.71220703 190.79562378 73.07910156 191.72064209 C75.20930484 197.09685205 77.32890688 202.47712767 79.43945312 207.86108398 C80.15875078 209.69327289 80.88017478 211.52462817 81.60351562 213.35522461 C82.66759922 216.04874526 83.72514551 218.7447488 84.78125 221.44140625 C85.26857605 222.66930626 85.26857605 222.66930626 85.76574707 223.92201233 C86.06025757 224.67808273 86.35476807 225.43415314 86.65820312 226.21313477 C86.91831177 226.87450943 87.17842041 227.53588409 87.44641113 228.21730042 C88 230 88 230 88 233 C84.08592773 234.81814105 80.16831756 236.62852845 76.25 238.4375 C75.13882813 238.95376953 74.02765625 239.47003906 72.8828125 240.00195312 C71.81289063 240.49501953 70.74296875 240.98808594 69.640625 241.49609375 C68.65610352 241.95169678 67.67158203 242.4072998 66.65722656 242.87670898 C64.42378492 243.82085314 62.36590954 244.50669313 60 245 C59.61328125 243.9378125 59.2265625 242.875625 58.828125 241.78125 C56.21130213 234.65945298 53.62167561 227.68617035 50 221 C44.76234651 221.49914106 40.76363711 222.83706494 36.1875 225.3125 C19.46442031 234.00380781 2.15542367 241.63846697 -15.11474609 249.17578125 C-16.91926374 249.96470272 -18.71950785 250.76337751 -20.51953125 251.5625 C-32.84073397 256.91029699 -32.84073397 256.91029699 -39.6875 254.9375 C-43.56537924 252.66930648 -45.0263521 251.02320533 -47 247 C-48.17874054 241.01123756 -47.72024937 236.60804436 -46 230.75 C-43.05953463 219.88102192 -40.95008217 208.88719138 -38.84661865 197.83486938 C-36.86748905 187.44330686 -34.83171992 177.0644304 -32.74666595 166.69363022 C-31.87373282 162.35085307 -31.00399824 158.00743504 -30.1340332 153.6640625 C-29.95588766 152.77487562 -29.77774212 151.88568874 -29.59419823 150.96955681 C-26.6203755 136.11901089 -23.68438977 121.26093773 -20.74932861 106.40269089 C-20.24007561 103.82476094 -19.73063455 101.2468682 -19.22119141 98.66897583 C-15.55399618 80.10854528 -11.90054516 61.54553661 -8.296875 42.97265625 C-8.1647184 42.29153715 -8.0325618 41.61041805 -7.89640045 40.90865898 C-5.25231562 27.27474707 -2.62879375 13.63686758 0 0 Z M47.0625 28.5 C44.91471699 28.54833039 42.76693054 28.59650857 40.61914062 28.64453125 C35.41271925 28.76126842 30.20634847 28.88005716 25 29 C21.91897365 38.07782543 19.42136779 47.35612984 20 57 C23.30651084 58.00253728 26.2405908 58.09034222 29.68652344 58.02172852 C30.82740417 58.00163223 31.96828491 57.98153595 33.14373779 57.96083069 C34.36989807 57.93379562 35.59605835 57.90676056 36.859375 57.87890625 C38.11888977 57.85529526 39.37840454 57.83168427 40.67608643 57.80735779 C44.01672274 57.74377606 47.35719911 57.67556319 50.69769287 57.60510254 C54.10958468 57.53427725 57.52159154 57.46954538 60.93359375 57.40429688 C67.62251602 57.27514476 74.31129405 57.13988533 81 57 C81.48146733 55.58367771 81.96047732 54.16651994 82.43847656 52.74902344 C82.70549377 51.95993591 82.97251099 51.17084839 83.24761963 50.35784912 C84.31481336 47.01342136 85.05013958 43.69217062 85.75 40.25 C86.01296875 38.99703125 86.2759375 37.7440625 86.546875 36.453125 C86.97628141 33.18075204 86.73046001 31.15812563 86 28 C73.01503473 27.90644276 60.0433361 28.20043451 47.0625 28.5 Z M15 85 C13.12119776 87.81820337 12.57742233 89.21575367 11.9296875 92.421875 C11.75566406 93.28296875 11.58164062 94.1440625 11.40234375 95.03125 C11.22832031 95.9284375 11.05429687 96.825625 10.875 97.75 C10.69324219 98.63171875 10.51148438 99.5134375 10.32421875 100.421875 C9.34567471 105.36609754 8.689976 109.95874016 9 115 C10.04068882 116.26443831 10.04068882 116.26443831 12.3399353 116.11593628 C13.37679474 116.1110318 14.41365417 116.10612732 15.48193359 116.10107422 C16.65339935 116.09711639 17.82486511 116.09315857 19.03182983 116.08908081 C24.39408064 116.04138382 29.75614904 115.9918304 35.11816406 115.92285156 C38.65467409 115.87908815 42.19074039 115.8632826 45.72748375 115.85362053 C49.09728042 115.83766781 52.46640879 115.78742569 55.8359375 115.7421875 C57.10786957 115.74298309 58.37980164 115.74377869 59.6902771 115.74459839 C60.86804718 115.7217276 62.04581726 115.69885681 63.25927734 115.67529297 C64.29772797 115.66561493 65.33617859 115.65593689 66.40609741 115.64596558 C69.21729193 115.23422879 69.21729193 115.23422879 70.81356812 112.60305786 C71.93776596 110.13654287 72.66541344 107.96272808 73.203125 105.3125 C73.3784375 104.44882812 73.55375 103.58515625 73.734375 102.6953125 C73.90453125 101.80585938 74.0746875 100.91640625 74.25 100 C74.5284375 98.66582031 74.5284375 98.66582031 74.8125 97.3046875 C74.98265625 96.44101562 75.1528125 95.57734375 75.328125 94.6875 C75.55870605 93.51767578 75.55870605 93.51767578 75.79394531 92.32421875 C76.02746764 89.69017542 75.56014466 87.57174592 75 85 C67.21156603 84.93056444 59.42320423 84.87722179 51.63453865 84.84456348 C48.0181296 84.82889099 44.40193192 84.80762447 40.78564453 84.77368164 C37.29730012 84.74114369 33.80915932 84.72315892 30.3206749 84.71536827 C28.33856231 84.70710731 26.35653191 84.68367913 24.37454224 84.66011047 C23.17344818 84.65988388 21.97235413 84.65965729 20.73486328 84.65942383 C19.67341095 84.65276199 18.61195862 84.64610016 17.51834106 84.63923645 C16.68728851 84.75828842 15.85623596 84.87734039 15 85 Z " fill="#2B1B4E" transform="translate(279,368)"/>
<path d="M0 0 C78.21 0 156.42 0 237 0 C235.87440504 11.25594964 235.87440504 11.25594964 234.765625 16.9140625 C234.52070312 18.1721875 234.27578125 19.4303125 234.0234375 20.7265625 C233.76820313 22.01304688 233.51296875 23.29953125 233.25 24.625 C233.01023437 25.85734375 232.77046875 27.0896875 232.5234375 28.359375 C230.12534885 40.59704387 227.5437689 52.78990927 225 65 C221.37 83.81 217.74 102.62 214 122 C136.45 122 58.9 122 -21 122 C-19 107 -19 107 -16 94 C51.65 93.67 119.3 93.34 189 93 C191.10283881 84.56386496 191.10283881 84.56386496 192 76 C98.445 75.505 98.445 75.505 3 75 C4 65 4 65 8 47 C70.7 46.67 133.4 46.34 198 46 C200.26148818 36.39223227 200.26148818 36.39223227 200 28 C132.35 28 64.7 28 -5 28 C-3.55834962 18.62927254 -1.85937219 9.29686097 0 0 Z " fill="#2B1B4E" transform="translate(395,67)"/>
<path d="M0 0 C9.9 0 19.8 0 30 0 C28.67628295 9.26601938 27.25858327 18.41713326 25.50390625 27.59765625 C25.26969467 28.83438583 25.03548309 30.07111542 24.79417419 31.34532166 C24.17793211 34.59405396 23.55870958 37.84220019 22.93835449 41.09014893 C22.56250918 43.06245184 22.18890818 45.0351658 21.81616211 47.00805664 C21.08993986 50.85097275 20.36003821 54.69317151 19.62890625 58.53515625 C19.41005264 59.69281998 19.19119904 60.8504837 18.9657135 62.04322815 C17.67324533 68.79186309 16.21798166 75.47152191 14.56382751 82.14134216 C13.8387441 85.33196063 13.8387441 85.33196063 14 90 C46.01 90.33 78.02 90.66 111 91 C108.525 105.355 108.525 105.355 106 120 C57.49 120.495 57.49 120.495 8 121 C5.49317235 131.82248148 5.49317235 131.82248148 3.23828125 142.68920898 C3.08660492 143.45865845 2.93492859 144.22810791 2.77865601 145.02087402 C2.28800602 147.51223858 1.80026911 150.00416374 1.3125 152.49609375 C0.96546902 154.26005783 0.61821525 156.02397809 0.27075195 157.78785706 C-0.6373197 162.39993002 -1.54308121 167.01245314 -2.44812012 171.62512207 C-3.8954941 179.00093476 -5.345523 186.37622407 -6.79727173 193.75117683 C-7.29847194 196.29976156 -7.79812176 198.84864653 -8.29760742 201.39756775 C-8.61095752 202.99221818 -8.92451003 204.58682886 -9.23828125 206.18139648 C-9.38712265 206.93937751 -9.53596405 207.69735853 -9.6893158 208.47830868 C-10.85583313 214.37591019 -12.13455204 220.24301872 -13.47338867 226.10414124 C-13.96782341 228.82305955 -14.03906373 231.24763549 -14 234 C1.91799527 234.07055085 17.83594728 234.12321109 33.75406075 234.15543652 C41.14761758 234.17080704 48.54107644 234.19170483 55.93457031 234.22631836 C62.39002556 234.25652555 68.84540975 234.27564597 75.30093372 234.28226548 C78.70886164 234.28612567 82.11658656 234.29498321 85.52444839 234.31719017 C106.05740115 234.43594392 125.83971604 233.23534109 145.8125 228.1875 C146.86179687 227.92743164 147.91109375 227.66736328 148.9921875 227.39941406 C157.89307876 225.13596656 166.45866073 222.35995435 175 219 C175.96470215 218.62294922 176.9294043 218.24589844 177.92333984 217.85742188 C189.23876133 213.41945696 200.51198639 208.89528948 211.62109375 203.9609375 C214 203 214 203 216 203 C217.26693763 212.66039945 217.08984092 222.27721582 217 232 C185.77781929 246.19401915 153.2754642 258.93770887 119 263 C117.89736397 263.13073612 117.89736397 263.13073612 116.77245247 263.26411337 C110.63489799 263.93632462 104.59133134 264.13954233 98.42037964 264.12025452 C96.89460712 264.12153615 96.89460712 264.12153615 95.33801091 264.12284368 C91.95562824 264.12448078 88.57329601 264.11900629 85.19091797 264.11352539 C82.75597637 264.11324311 80.32103469 264.11340205 77.88609314 264.1139679 C72.65715937 264.11419505 67.42823684 264.11137271 62.19930649 264.10573006 C54.63930056 264.09757724 47.07930066 264.09499597 39.51929082 264.09374207 C27.25146388 264.09155747 14.98364363 264.08491349 2.71582031 264.07543945 C-9.1959632 264.06624998 -21.1077449 264.05917666 -33.01953125 264.05493164 C-34.12227226 264.05453756 -34.12227226 264.05453756 -35.24729086 264.05413551 C-38.93565011 264.0528304 -42.62400937 264.05156671 -46.31236863 264.05032361 C-76.8749172 264.03996946 -107.43745767 264.02229258 -138 264 C-137.1908237 259.72852995 -136.37709263 255.45794016 -135.5625 251.1875 C-135.33240234 249.97255859 -135.10230469 248.75761719 -134.86523438 247.50585938 C-134.64287109 246.34248047 -134.42050781 245.17910156 -134.19140625 243.98046875 C-133.98717041 242.90692139 -133.78293457 241.83337402 -133.57250977 240.72729492 C-133 238 -133 238 -132 235 C-103.62 234.67 -75.24 234.34 -46 234 C-40.86724658 209.19804528 -40.86724658 209.19804528 -35.99661446 184.34807014 C-35.39835736 181.20760469 -34.79734635 178.06767541 -34.19578552 174.92784119 C-33.33873237 170.45323027 -32.48269861 165.97842635 -31.62756348 161.50344849 C-29.40546881 149.87733072 -27.17472679 138.25287226 -24.94140625 126.62890625 C-24.72329662 125.49360159 -24.505187 124.35829693 -24.28046799 123.1885891 C-19.87160758 100.25020293 -15.32704666 77.34164783 -10.69795227 54.44668579 C-7.73839068 39.78472684 -4.89707663 25.09911634 -2.05239868 10.414505 C-1.37919316 6.94064853 -0.69396551 3.46982754 0 0 Z " fill="#2B1B4E" transform="translate(911,361)"/>
<path d="M0 0 C33.99 0 67.98 0 103 0 C101.87501648 12.37481875 101.87501648 12.37481875 100.97192383 16.98925781 C100.67074394 18.54969818 100.67074394 18.54969818 100.36347961 20.1416626 C100.14685165 21.23444519 99.93022369 22.32722778 99.70703125 23.453125 C99.36426399 25.21725739 99.36426399 25.21725739 99.01457214 27.01702881 C98.28567182 30.76237378 97.54928358 34.50619873 96.8125 38.25 C96.33738295 40.68349469 95.86277011 43.11708787 95.38867188 45.55078125 C94.42316094 50.50378143 93.4546253 55.45617712 92.48413086 60.40820312 C90.99493707 68.01448274 89.52397598 75.62422967 88.0546875 83.234375 C84.98637019 99.11349345 81.86612256 114.98221888 78.73657227 130.84936523 C78.16416971 133.75224039 77.59232557 136.65522544 77.02048969 139.55821228 C76.45696502 142.41881863 75.89320488 145.27937853 75.32936668 148.1399231 C74.94218925 150.10425455 74.55511487 152.06860632 74.16804504 154.03295898 C73.68829863 156.46516501 73.20727066 158.89711867 72.72485352 161.32879639 C72.21440466 163.9140935 71.70999616 166.5000886 71.21166992 169.08770752 C70.94950006 170.43380444 70.68729406 171.77989432 70.42504883 173.12597656 C70.19304276 174.32885315 69.96103668 175.53172974 69.72200012 176.77105713 C68.76560926 181.04824678 67.33408268 184.8436009 65.375 188.75 C64.85341309 189.81347656 64.85341309 189.81347656 64.32128906 190.8984375 C56.03917316 207.15236702 42.60345538 217.3006245 25.5625 223.1875 C16.8125 226 16.8125 226 12 226 C11.97103178 221.56251365 11.95321212 217.12505153 11.9375 212.6875 C11.92912109 211.42486328 11.92074219 210.16222656 11.91210938 208.86132812 C11.90888672 207.65283203 11.90566406 206.44433594 11.90234375 205.19921875 C11.89710693 204.08377686 11.89187012 202.96833496 11.88647461 201.8190918 C12 199 12 199 13 196 C15.44140625 195.26171875 15.44140625 195.26171875 18.5625 194.6875 C26.0694437 192.95787164 31.1809211 189.87815028 35.75 183.625 C41.91819348 172.40315363 43.20614113 157.39559089 45.57421875 144.8984375 C45.90268646 143.18377357 46.23158009 141.46919119 46.56086731 139.75468445 C47.42967099 135.22566047 48.29326285 130.69565843 49.1557312 126.16542435 C50.04737668 121.48656905 50.94361682 116.80859477 51.83984375 112.13061523 C52.10613303 110.74065543 52.10613303 110.74065543 52.3778019 109.32261562 C52.7346625 107.45996469 53.09154323 105.59731762 53.44844437 103.73467445 C53.97846331 100.96750144 54.50787803 98.20021334 55.03720093 95.4329071 C57.01479357 85.09959776 59.0129456 74.77082779 61.05078125 64.44921875 C61.26812424 63.347453 61.48546722 62.24568726 61.70939636 61.11053467 C62.6717567 56.23784192 63.63904681 51.36618129 64.61206055 46.49560547 C64.9393958 44.84214327 65.26663329 43.1886617 65.59375 41.53515625 C65.81282768 40.45218513 65.81282768 40.45218513 66.03633118 39.34733582 C66.67015903 36.12848068 67 33.3031284 67 30 C53.14 30 39.28 30 25 30 C21.80632273 42.54291124 21.80632273 42.54291124 19.17578125 55.16796875 C18.95503433 56.34691711 18.95503433 56.34691711 18.72982788 57.54968262 C18.41634929 59.22508905 18.10484892 60.90086675 17.79525757 62.57699585 C16.94044404 67.1993869 16.06731987 71.8183269 15.1953125 76.4375 C15.01475815 77.39524826 14.8342038 78.35299652 14.6481781 79.33976746 C12.73268913 89.47002618 10.71878486 99.57992198 8.6875 109.6875 C8.50477539 110.59788025 8.32205078 111.5082605 8.13378906 112.44622803 C6.97003373 118.24380627 5.80370097 124.04086369 4.63659668 129.83776855 C2.52466843 140.32856457 0.41639952 150.82009086 -1.6875 161.3125 C-1.92503998 162.49649384 -2.16257996 163.68048767 -2.40731812 164.90036011 C-5.06711786 178.16837398 -7.68142589 191.44046842 -10.125 204.75 C-15.92076385 236.11333812 -22.57906178 267.23248021 -31 298 C-31.4031543 299.49128418 -31.4031543 299.49128418 -31.81445312 301.01269531 C-35.83137354 315.7253358 -41.36976344 329.83920325 -47 344 C-50.64795474 343.3490961 -54.02569081 342.38201944 -57.51953125 341.15234375 C-58.54111328 340.79462891 -59.56269531 340.43691406 -60.61523438 340.06835938 C-62.19788086 339.50858398 -62.19788086 339.50858398 -63.8125 338.9375 C-64.88693359 338.56044922 -65.96136719 338.18339844 -67.06835938 337.79492188 C-69.71330118 336.86625342 -72.35712054 335.93451811 -75 335 C-73.54944004 329.88751763 -71.99510098 324.85359699 -70.08984375 319.890625 C-60.60733595 295.17762815 -54.53179404 269.4151152 -48.75 243.625 C-48.60118378 242.96567474 -48.45236755 242.30634949 -48.29904175 241.62704468 C-45.96112368 231.19944245 -43.99595925 220.70825608 -42.04843712 210.20176315 C-39.49173849 196.43154825 -36.79166023 182.69087325 -34.06640625 168.953125 C-33.84521748 167.83793362 -33.6240287 166.72274223 -33.39613724 165.57375717 C-32.01969486 158.63665127 -30.64085781 151.7000229 -29.26123047 144.7635498 C-27.19406375 134.36885034 -25.1300319 123.97352795 -23.06640625 113.578125 C-22.73389233 111.90359316 -22.73389233 111.90359316 -22.39466095 110.19523239 C-19.34054163 94.81157148 -16.31804762 79.42218672 -13.33421326 64.02474976 C-11.00774883 52.02039964 -8.64812852 40.02286702 -6.25439453 28.03173828 C-5.8227146 25.86664071 -5.39244896 23.70126082 -4.96337891 21.53564453 C-4.32472685 18.3122636 -3.68237163 15.08964178 -3.0390625 11.8671875 C-2.84744537 10.89675507 -2.65582825 9.92632263 -2.45840454 8.92648315 C-2.28086639 8.04179352 -2.10332825 7.15710388 -1.92041016 6.24560547 C-1.76609528 5.47038544 -1.6117804 4.69516541 -1.45278931 3.89645386 C-1 2 -1 2 0 0 Z " fill="#2B1B4E" transform="translate(424,368)"/>
<path d="M0 0 C1.25159912 0.00523682 2.50319824 0.01047363 3.79272461 0.01586914 C4.78942421 0.01799156 4.78942421 0.01799156 5.80625916 0.02015686 C7.93590735 0.02577021 10.06545175 0.03832485 12.19506836 0.05102539 C13.63582205 0.05603868 15.07657739 0.06060188 16.51733398 0.06469727 C20.05577938 0.07574394 23.59416375 0.09301747 27.13256836 0.11352539 C27.01139648 0.78407959 26.89022461 1.45463379 26.76538086 2.14550781 C26.21663951 5.19656248 25.67454201 8.2487616 25.13256836 11.30102539 C24.94178711 12.35612305 24.75100586 13.4112207 24.55444336 14.49829102 C24.37397461 15.51987305 24.19350586 16.54145508 24.00756836 17.59399414 C23.83999023 18.53138428 23.67241211 19.46877441 23.49975586 20.43457031 C23.01940662 23.48847262 23.01940662 23.48847262 23.13256836 28.11352539 C53.82256836 28.60852539 53.82256836 28.60852539 85.13256836 29.11352539 C84.53723748 36.25749592 83.98165319 42.92041913 82.57006836 49.86352539 C82.43149414 50.57250977 82.29291992 51.28149414 82.15014648 52.01196289 C81.8167132 53.71362239 81.47554075 55.41376284 81.13256836 57.11352539 C79.58281563 57.12232475 79.58281563 57.12232475 78.00175476 57.13130188 C68.2751639 57.18846233 58.54879806 57.2611887 48.82243633 57.3492403 C43.82174471 57.39400837 38.82113577 57.43325019 33.8203125 57.45996094 C28.99613958 57.48592984 24.17228378 57.52628639 19.34830666 57.57671165 C17.50591787 57.59342389 15.66347418 57.60491096 13.82102013 57.6111393 C11.24443525 57.62073322 8.66866966 57.64873492 6.09228516 57.68115234 C5.32695969 57.67971725 4.56163422 57.67828217 3.77311707 57.67680359 C-0.24526545 57.71835947 -0.24526545 57.71835947 -3.75431824 59.47257996 C-5.45894185 61.98552636 -7.08557324 64.52840889 -8.67993164 67.11352539 C-12.49360573 73.17882115 -16.60357056 78.98208419 -20.86743164 84.73852539 C-21.76655273 85.95306396 -21.76655273 85.95306396 -22.68383789 87.19213867 C-25.33554943 90.75790908 -28.00528806 94.30685392 -30.73071289 97.81665039 C-31.36009766 98.63335205 -31.36009766 98.63335205 -32.00219727 99.46655273 C-33.09094783 100.87353263 -34.19156961 102.27130477 -35.29321289 103.66821289 C-36.95133396 106.24385505 -37.35717348 108.13138441 -37.86743164 111.11352539 C-32.86733803 111.19341375 -27.8717182 111.2138126 -22.87109375 111.18066406 C-21.17280442 111.17759418 -19.47440571 111.19037937 -17.77636719 111.21972656 C-8.10414723 111.69173664 -8.10414723 111.69173664 0.62939453 108.375 C2.47357389 106.04973038 3.79328073 103.75861216 5.13256836 101.11352539 C6.17602398 99.52060864 7.2320645 97.93586458 8.30053711 96.35961914 C9.31194955 94.75984323 10.31847233 93.15696545 11.32006836 91.55102539 C11.82731445 90.75245117 12.33456055 89.95387695 12.85717773 89.13110352 C15.92597453 84.2472985 18.63671778 79.31371048 21.13256836 74.11352539 C30.64671516 75.48298591 39.8465949 77.68597395 49.13256836 80.11352539 C45.02717319 94.42442268 35.59538936 107.60324027 26.5637207 119.24975586 C25.04470002 121.2279551 23.56432277 123.23101978 22.08959961 125.24243164 C16.45807914 132.90572336 10.64875279 140.17261538 4.13256836 147.11352539 C2.77080176 148.6140455 1.40909272 150.11461941 0.04931641 151.61694336 C-2.23750032 154.13350576 -4.55064358 156.62449798 -6.86743164 159.11352539 C-7.60735352 159.90887695 -8.34727539 160.70422852 -9.10961914 161.52368164 C-14.63047344 167.25687649 -20.71207758 172.0751258 -27.09204102 176.7956543 C-28.9071356 178.14299761 -30.7079732 179.50792836 -32.50805664 180.87524414 C-52.20888586 195.7299494 -74.40605848 208.3498199 -97.86743164 216.11352539 C-98.8751468 212.19880215 -99.87225974 208.28145439 -100.86743164 204.36352539 C-101.15360352 203.25235352 -101.43977539 202.14118164 -101.73461914 200.99633789 C-102.14067383 199.39145508 -102.14067383 199.39145508 -102.55493164 197.75415039 C-102.80629883 196.76962891 -103.05766602 195.78510742 -103.31665039 194.77075195 C-103.86743164 192.11352539 -103.86743164 192.11352539 -103.86743164 188.11352539 C-102.97942871 187.74553833 -102.97942871 187.74553833 -102.07348633 187.37011719 C-83.14236573 179.47120743 -64.895866 171.0796166 -48.86743164 158.11352539 C-47.63768253 157.15649479 -46.40579044 156.20221346 -45.17211914 155.25024414 C-43.90350203 154.26767191 -42.63526708 153.28460603 -41.36743164 152.30102539 C-40.48498779 151.6165332 -40.48498779 151.6165332 -39.5847168 150.91821289 C-34.96025227 147.29890534 -34.96025227 147.29890534 -30.86743164 143.11352539 C-30.86743164 142.12352539 -30.86743164 141.13352539 -30.86743164 140.11352539 C-32.47799438 140.13709106 -32.47799438 140.13709106 -34.12109375 140.16113281 C-38.14103564 140.21582493 -42.16094526 140.25001697 -46.18115234 140.27832031 C-47.9142817 140.29331808 -49.64737369 140.31372311 -51.38037109 140.33984375 C-53.88526689 140.37662742 -56.38965684 140.39334191 -58.89477539 140.40649414 C-60.03909279 140.42971992 -60.03909279 140.42971992 -61.20652771 140.45341492 C-66.76086415 140.45511549 -71.82755549 139.5425762 -76.86743164 137.11352539 C-80.51813802 133.09774837 -81.77250928 129.52409992 -81.86743164 124.11352539 C-79.13505728 115.9164023 -73.52596143 109.22648845 -68.42993164 102.36352539 C-61.50589841 92.99684204 -54.61473696 83.60862297 -47.86743164 74.11352539 C-47.20445068 73.1817749 -47.20445068 73.1817749 -46.52807617 72.23120117 C-45.35830232 70.5754299 -44.2059445 68.9073929 -43.05493164 67.23852539 C-42.42973633 66.33360352 -41.80454102 65.42868164 -41.16040039 64.49633789 C-39.5494764 61.97940022 -39.5494764 61.97940022 -39.86743164 58.11352539 C-52.07743164 58.11352539 -64.28743164 58.11352539 -76.86743164 58.11352539 C-76.22805664 54.25665039 -75.58868164 50.39977539 -74.92993164 46.42602539 C-74.73020752 45.21857666 -74.5304834 44.01112793 -74.32470703 42.76708984 C-74.08482056 41.32402466 -74.08482056 41.32402466 -73.84008789 39.85180664 C-73.67774658 38.87252197 -73.51540527 37.8932373 -73.34814453 36.88427734 C-72.89739557 34.28623267 -72.38456169 31.69917565 -71.86743164 29.11352539 C-51.07743164 28.78352539 -30.28743164 28.45352539 -8.86743164 28.11352539 C-6.39243164 14.74852539 -6.39243164 14.74852539 -3.86743164 1.11352539 C-2.86743164 0.11352539 -2.86743164 0.11352539 0 0 Z " fill="#2B1B4E" transform="translate(615.867431640625,361.886474609375)"/>
<path d="M0 0 C10.23 0 20.46 0 31 0 C28.5625 11.5 28.5625 11.5 27.79907227 15.07617188 C23.90028069 32.28577864 23.90028069 32.28577864 26.828125 49.28125 C30.44270181 54.58262933 36.99465917 56.71314125 43 58 C63.94204606 61.23105854 85.3346219 58.91929585 106 55 C106.90782227 54.82871582 107.81564453 54.65743164 108.75097656 54.48095703 C124.95826489 51.31314119 140.76498133 46.42645334 156.6131897 41.84255981 C211.99023735 25.83714038 267.58673094 16.0886397 324 33 C324.79986328 33.23589844 325.59972656 33.47179687 326.42382812 33.71484375 C344.9281347 39.25205806 362.10507266 47.74280535 379 57 C378.38265468 60.17738263 377.31462757 62.29753864 375.453125 64.93359375 C374.9375 65.66513672 374.421875 66.39667969 373.890625 67.15039062 C373.34921875 67.90513672 372.8078125 68.65988281 372.25 69.4375 C371.7240625 70.18837891 371.198125 70.93925781 370.65625 71.71289062 C367.71268995 75.8550042 364.71945803 79.53539372 361 83 C360.20166748 82.43841187 360.20166748 82.43841187 359.38720703 81.86547852 C353.76657408 78.00334768 348.04517887 74.82989661 341.875 71.9375 C340.95340088 71.5041333 340.03180176 71.0707666 339.08227539 70.62426758 C331.5259876 67.13255099 324.02517503 64.25911939 316 62 C315.26523437 61.79036621 314.53046875 61.58073242 313.7734375 61.36474609 C281.90862365 52.40605359 248.58121866 51.33625894 216 57 C214.98486328 57.16677246 213.96972656 57.33354492 212.92382812 57.50537109 C193.90510722 60.71106793 175.68362324 66.22119222 157.25927734 71.8112793 C129.46545166 80.2404584 101.22983606 88.28416728 72 89 C71.31873047 89.02578125 70.63746094 89.0515625 69.93554688 89.078125 C47.38342206 89.90194691 22.43945472 87.84859224 5 72 C-4.05317261 62.58621884 -6.63397837 50.43375012 -6.43359375 37.734375 C-5.79468004 25.12460558 -2.46392557 12.26829607 0 0 Z " fill="#2B1B4E" transform="translate(702,255)"/>
<path d="M0 0 C9.03467027 3.43829557 17.63424946 7.0953396 26 12 C24.75153755 15.40974729 23.3501845 18.1522549 21.1640625 21.046875 C20.60082275 21.80025146 20.03758301 22.55362793 19.45727539 23.32983398 C18.85262451 24.12848877 18.24797363 24.92714355 17.625 25.75 C16.34358847 27.46375035 15.06366617 29.17861513 13.78515625 30.89453125 C13.14465332 31.75385254 12.50415039 32.61317383 11.84423828 33.49853516 C9.18773923 37.1017241 6.62191876 40.76504289 4.0625 44.4375 C-0.39060397 50.80961698 -5.0025964 57.04658162 -9.6875 63.25 C-14.00273252 68.97480212 -18.31000467 74.70018663 -22.4375 80.5625 C-23.13746094 81.55378906 -23.83742188 82.54507813 -24.55859375 83.56640625 C-26.25480655 85.95879642 -26.25480655 85.95879642 -26 89 C-14.26405132 90.37444166 -14.26405132 90.37444166 -3.2421875 87.453125 C-1.18461231 85.09423127 0.37646518 82.67643948 2 80 C3.25132923 78.33139015 4.545262 76.70192521 5.84375 75.06982422 C9.72813175 70.17059127 13.42297249 65.12707277 17 60 C17.89460938 60.51949219 18.78921875 61.03898437 19.7109375 61.57421875 C26.70295237 65.61396341 33.71316539 69.50769217 41 73 C39.71939171 75.70943513 38.32128018 78.06030581 36.5 80.4375 C35.96632813 81.13488281 35.43265625 81.83226562 34.8828125 82.55078125 C34.26148438 83.35902344 33.64015625 84.16726563 33 85 C32.27554687 85.96292969 31.55109375 86.92585938 30.8046875 87.91796875 C25.85880524 94.46512352 20.70377487 100.77511458 15.32617188 106.97241211 C12.42627814 110.31804758 9.60931309 113.7034559 6.875 117.1875 C3.24246479 121.78669739 -0.6579535 126.09841211 -4.625 130.41015625 C-7.20087901 133.21905063 -9.70894018 136.07918287 -12.20703125 138.95703125 C-15.09112183 142.24326082 -18.04021379 145.47072424 -20.984375 148.703125 C-25.1507458 153.13904985 -25.1507458 153.13904985 -26 159 C-14.6071736 157.8762178 -3.54334224 155.49968987 7.62597656 153.03271484 C8.80772461 152.77184082 9.98947266 152.5109668 11.20703125 152.2421875 C12.2741333 152.0035498 13.34123535 151.76491211 14.44067383 151.51904297 C17 151 17 151 19 151 C18.71272358 153.75051891 18.4202367 156.50033278 18.125 159.25 C18.04636719 160.00796875 17.96773437 160.7659375 17.88671875 161.546875 C17.17931352 168.07676944 16.1280655 174.53057895 15 181 C14.41959961 181.12004395 13.83919922 181.24008789 13.24121094 181.36376953 C10.41060003 181.94985044 7.58028473 182.53734589 4.75 183.125 C3.67387451 183.34800781 2.59774902 183.57101562 1.48901367 183.80078125 C-4.28367945 185.00150805 -10.05039809 186.22364332 -15.80859375 187.4921875 C-28.08437197 190.19019919 -40.37105543 192.70344803 -52.75 194.875 C-53.95744873 195.09027344 -55.16489746 195.30554688 -56.40893555 195.52734375 C-71.57387319 198.11975084 -71.57387319 198.11975084 -77.25 195.5 C-80.71110582 192.35354016 -82.81223677 189.55713239 -84 185 C-84.23333126 173.03647018 -72.10969433 163.72926661 -64.55517578 155.66845703 C-62.07591368 153.0086019 -59.6345453 150.31445333 -57.1875 147.625 C-54.32383182 144.48251422 -51.43096463 141.39511174 -48.375 138.4375 C-39.84421358 130.31878346 -39.84421358 130.31878346 -35 120 C-35.85231201 120.05124023 -36.70462402 120.10248047 -37.58276367 120.15527344 C-40.75970602 120.33613308 -43.93689831 120.49789986 -47.11547852 120.64697266 C-48.48827261 120.71523224 -49.86071614 120.79098606 -51.23266602 120.87451172 C-53.21000076 120.99356778 -55.18904571 121.08304554 -57.16796875 121.171875 C-58.35672607 121.2347168 -59.5454834 121.29755859 -60.77026367 121.36230469 C-64.7120658 120.92012203 -66.22356896 119.77426074 -69 117 C-72.1981974 111.48586655 -72.90352187 106.32169458 -72 100 C-70.62330947 96.88084334 -68.72933985 94.35596174 -66.625 91.6875 C-66.0777124 90.9545874 -65.5304248 90.2216748 -64.96655273 89.46655273 C-63.33428664 87.292015 -61.6722054 85.14390561 -60 83 C-59.14350827 81.88359657 -58.28794616 80.76647893 -57.43359375 79.6484375 C-55.83883161 77.57288215 -54.23713361 75.50263947 -52.62890625 73.4375 C-46.329911 65.27473894 -40.41711364 56.80684777 -34.44140625 48.40625 C-33.6484514 47.29165678 -32.85548288 46.17707328 -32.0625 45.0625 C-31.67118896 44.51198975 -31.27987793 43.96147949 -30.87670898 43.39428711 C-27.33234786 38.42622582 -23.69698618 33.5273188 -20.0625 28.625 C-13.12084049 19.25324001 -6.46908217 9.70362325 0 0 Z " fill="#2B1B4E" transform="translate(1118,358)"/>
<path d="M0 0 C21.78 0 43.56 0 66 0 C64.8748493 11.25150695 64.8748493 11.25150695 63.92773438 16.05249023 C63.61058723 17.67726036 63.61058723 17.67726036 63.28703308 19.33485413 C62.94385796 21.05435524 62.94385796 21.05435524 62.59375 22.80859375 C62.23250786 24.64562111 62.23250786 24.64562111 61.8639679 26.51976013 C61.21484414 29.81355731 60.56138813 33.10643079 59.90552139 36.39888763 C59.49868396 38.44411591 59.09377712 40.48971679 58.68954468 42.53546143 C54.82053975 62.11482048 50.84490824 81.67043566 46.6796875 101.18920898 C46.50398727 102.01558365 46.32828705 102.84195831 46.14726257 103.69337463 C45.82672647 105.19892243 45.50419291 106.70404731 45.17903137 108.20860291 C44.27301899 112.46176247 43.56971483 116.69229757 43 121 C48.25942051 120.60004407 51.24596027 117.75342012 55.125 114.5 C56.12067993 113.68305664 56.12067993 113.68305664 57.13647461 112.84960938 C58.47705499 111.7485512 59.81458915 110.64377279 61.14892578 109.53515625 C63.60189585 107.50082813 66.08415939 105.50329464 68.5625 103.5 C73.48707796 99.46140309 78.32379199 95.32364933 83.14282227 91.16015625 C86.3764519 88.36995586 89.64505204 85.64500579 93 83 C94.29750499 86.18515384 95.58692873 89.37352079 96.875 92.5625 C97.23980469 93.45775391 97.60460937 94.35300781 97.98046875 95.27539062 C99.93955111 100.13747686 101.67767129 104.92643354 103 110 C95.22389436 117.30632502 87.34305303 124.33819856 79 131 C78.27296875 131.60714844 77.5459375 132.21429688 76.796875 132.83984375 C44.26285196 159.74297819 5.94377811 180.34132896 -34.8125 191.25 C-35.76729248 191.50861816 -36.72208496 191.76723633 -37.70581055 192.03369141 C-38.63433838 192.27522949 -39.56286621 192.51676758 -40.51953125 192.765625 C-41.33526611 192.97993164 -42.15100098 193.19423828 -42.99145508 193.41503906 C-47.27940393 194.24875857 -51.65343044 194.56534304 -56 195 C-56 185.43 -56 175.86 -56 166 C-52.08125 165.13375 -48.1625 164.2675 -44.125 163.375 C-27.06591162 159.47760528 -11.30220617 154.60519747 4 146 C5.04003174 145.42463501 5.04003174 145.42463501 6.10107422 144.83764648 C8.81615884 142.21017901 9.0851024 139.35569634 9.640625 135.765625 C9.76846375 135.03282822 9.89630249 134.30003143 10.02801514 133.54502869 C10.30429217 131.95290171 10.57314397 130.35947253 10.83544922 128.76498413 C11.54790251 124.44269408 12.31751277 120.1304328 13.078125 115.81640625 C13.23430298 114.9217012 13.39048096 114.02699615 13.5513916 113.10517883 C15.19174846 103.76263425 17.07271431 94.47443582 19 85.1875 C19.16536255 84.38657928 19.3307251 83.58565857 19.50109863 82.76046753 C21.32033218 73.9500683 23.17655755 65.14791315 25.0625 56.3515625 C25.22717773 55.58191666 25.39185547 54.81227081 25.56152344 54.01930237 C26.34090216 50.37828823 27.12461788 46.73833797 27.91796875 43.1003418 C28.19253906 41.82586182 28.46710938 40.55138184 28.75 39.23828125 C28.99234375 38.12493408 29.2346875 37.01158691 29.484375 35.86450195 C30.11810525 32.8289683 30.11810525 32.8289683 30 29 C12.675 28.505 12.675 28.505 -5 28 C-4.0409375 22.18375 -4.0409375 22.18375 -3.0625 16.25 C-2.76291382 14.4251709 -2.76291382 14.4251709 -2.45727539 12.56347656 C-2.29735107 11.59893555 -2.13742676 10.63439453 -1.97265625 9.640625 C-1.81031494 8.65610352 -1.64797363 7.67158203 -1.48071289 6.65722656 C-1.07602362 4.42023415 -0.55135707 2.20542827 0 0 Z " fill="#2B1B4E" transform="translate(56,148)"/>
<path d="M0 0 C9.9 0 19.8 0 30 0 C27.74964074 15.75251485 27.74964074 15.75251485 26.75073242 20.99169922 C26.41479317 22.76587723 26.41479317 22.76587723 26.07206726 24.57589722 C25.83558975 25.80639801 25.59911224 27.0368988 25.35546875 28.3046875 C25.10104012 29.63961626 24.84683944 30.97458849 24.59284973 32.30960083 C24.06286263 35.09155677 23.53070791 37.87308578 22.99682617 40.65429688 C22.32773613 44.14035367 21.66325486 47.62726847 21.00026321 51.11448956 C18.37816771 64.8990527 15.68603451 78.66394342 12.78730774 92.39353943 C10.70460194 102.30398976 8.83250866 112.25120818 6.97793579 122.20648193 C6.35255091 125.5578004 5.72225927 128.90816397 5.09057617 132.25830078 C3.24495108 142.04662113 1.40070711 151.83513917 -0.41845703 161.62841797 C-1.59958614 167.98576534 -2.79350927 174.34060377 -3.99505615 180.69412231 C-4.44866714 183.10541757 -4.89777115 185.51756606 -5.34185791 187.93063354 C-9.30524922 209.44691634 -14.48690691 230.2215165 -24 250 C-24.28343262 250.60634277 -24.56686523 251.21268555 -24.85888672 251.83740234 C-38.13930684 280.2391679 -58.68278853 300.70887996 -87 314 C-87.66 314 -88.32 314 -89 314 C-90.17072186 309.70942891 -91.33589137 305.41736967 -92.5 301.125 C-92.83386719 299.90167969 -93.16773438 298.67835938 -93.51171875 297.41796875 C-93.82753906 296.25136719 -94.14335938 295.08476563 -94.46875 293.8828125 C-94.76201172 292.80402832 -95.05527344 291.72524414 -95.35742188 290.61376953 C-96 288 -96 288 -96 286 C-95.03320312 285.5153125 -94.06640625 285.030625 -93.0703125 284.53125 C-72.21600907 273.8945343 -59.24020807 258.42541143 -50 237 C-49.53207031 235.92492187 -49.06414063 234.84984375 -48.58203125 233.7421875 C-41.37523815 216.0467386 -38.09739291 197.22245181 -34.57297897 178.53803253 C-33.91635114 175.06643233 -33.25075952 171.59655022 -32.58618164 168.12646484 C-31.27977808 161.29771266 -29.98250461 154.46726179 -28.6887207 147.6361084 C-27.73742839 142.61375034 -26.78293545 137.59200269 -25.828125 132.5703125 C-25.50674919 130.87996521 -25.18537862 129.18961693 -24.86401367 127.49926758 C-24.71032318 126.69099518 -24.55663269 125.88272278 -24.39828491 125.04995728 C-24.09068916 123.43118344 -23.78341868 121.81234776 -23.47647095 120.19345093 C-20.05075055 102.1261533 -16.49675409 84.08424867 -12.94311523 66.04174805 C-12.48029197 63.69189729 -12.01748247 61.34204383 -11.5546875 58.9921875 C-11.33130203 57.85797867 -11.10791656 56.72376984 -10.87776184 55.55519104 C-8.84072519 45.20513841 -6.82917935 34.85031009 -4.83740234 24.49145508 C-3.26445003 16.31942777 -1.63849145 8.15911584 0 0 Z " fill="#2B1B4E" transform="translate(779,360)"/>
<path d="M0 0 C5.56664924 1.66086912 10.65786353 4.11071736 15.875 6.625 C16.75414062 7.04523438 17.63328125 7.46546875 18.5390625 7.8984375 C20.69422878 8.9291692 22.84779922 9.96309426 25 11 C23.45805987 15.42469776 21.10855604 19.14426395 18.5 23 C18.05857666 23.65645508 17.61715332 24.31291016 17.16235352 24.98925781 C12.70889041 31.54195126 7.93114685 37.80220962 3 44 C2.29488281 44.89976562 1.58976563 45.79953125 0.86328125 46.7265625 C-4.70724469 53.70773918 -10.7400477 60.22118386 -16.86328125 66.71484375 C-17.40291504 67.28960449 -17.94254883 67.86436523 -18.49853516 68.45654297 C-19.76746034 69.76095679 -21.11666734 70.98653603 -22.48046875 72.19140625 C-24.20156712 73.85566031 -24.20156712 73.85566031 -24.0390625 75.953125 C-22.60314783 78.78176894 -20.67428871 80.56880165 -18.375 82.75 C-15.34622178 85.63898845 -12.49808705 88.54052269 -9.7734375 91.71875 C-5.51310268 96.64639414 -0.88945307 101.18225408 3.75 105.75 C5.43464038 107.4090768 7.11702513 109.07044788 8.796875 110.734375 C9.53260742 111.45850586 10.26833984 112.18263672 11.02636719 112.92871094 C12.86546288 114.85880593 14.45272373 116.83234777 16 119 C11.83328385 128.49085344 0.93944363 135.69232458 -7 142 C-7.51046875 141.41734375 -8.0209375 140.8346875 -8.546875 140.234375 C-12.93372061 135.28750654 -17.42166254 130.51928739 -22.125 125.875 C-25.94918645 122.09834849 -29.593903 118.2474875 -33.0703125 114.1484375 C-36.23031821 110.63021252 -39.62048404 107.33949698 -43.00195312 104.03515625 C-46.89787524 100.20424953 -46.89787524 100.20424953 -48 98 C-53.2371374 98.41977055 -56.29274017 101.229411 -60.25 104.375 C-90.61273217 127.73846295 -125.66825146 145.27703753 -163 154 C-163.65447113 154.15397247 -164.30894226 154.30794495 -164.98324585 154.46658325 C-171.17767503 155.90911354 -176.60224362 157 -183 157 C-183 147.76 -183 138.52 -183 129 C-174.1612302 126.79030755 -174.1612302 126.79030755 -170.3203125 126.0625 C-124.23241798 116.81549475 -85.64635505 90.57813729 -51 60 C-49.55753906 58.7315625 -49.55753906 58.7315625 -48.0859375 57.4375 C-29.30293292 40.54903479 -13.75026975 21.12846327 0 0 Z " fill="#2B1B4E" transform="translate(657,492)"/>
<path d="M0 0 C5.74302442 5.43486213 9.51515699 13.40665077 10.3984375 21.22265625 C10.61945435 38.70508922 3.07914374 53.80419042 -8.9375 66.25 C-25.48439359 81.70260021 -46.64526017 91.74377376 -69.55859375 91.45703125 C-79.10509157 90.87210133 -86.06004798 87.92685967 -92.9375 81.25 C-98.07841705 75.05453586 -99.19825462 68.94966332 -98.875 61.125 C-97.25892928 44.90791823 -89.0723311 32.45012231 -78.9375 20.25 C-78.174375 19.239375 -77.41125 18.22875 -76.625 17.1875 C-58.23747658 -2.91049071 -24.50965498 -19.04538125 0 0 Z M-57.39453125 36.37109375 C-66.18301826 47.78607794 -66.18301826 47.78607794 -68.9375 61.25 C-66.95516487 63.65533071 -66.95516487 63.65533071 -63.125 63.625 C-50.87942266 63.32968865 -37.76845327 57.56740791 -28.828125 49.28125 C-23.34488643 43.39016724 -19.45539153 37.91102381 -18.5625 29.875 C-19.06302382 25.03660312 -20.54110084 23.64639916 -23.9375 20.25 C-36.75272713 13.84238643 -50.22328898 27.2616779 -57.39453125 36.37109375 Z " fill="#2B1B4E" transform="translate(1351.9375,302.75)"/>
<path d="M0 0 C-1.50023826 9.27865993 -3.16347879 18.5243408 -4.86694336 27.76733398 C-5.30340949 30.13812236 -5.73676009 32.50946538 -6.16992188 34.88085938 C-8.63683724 48.28753247 -11.32558024 61.62790122 -14 75 C-47.33 75 -80.66 75 -115 75 C-106.76923009 31.49450191 -106.76923009 31.49450191 -104.53613281 20.36499023 C-104.09863437 18.18087537 -103.66655017 15.99572078 -103.234375 13.81054688 C-102.9508295 12.39056333 -102.6669902 10.97063841 -102.3828125 9.55078125 C-102.13934082 8.33044189 -101.89586914 7.11010254 -101.64501953 5.8527832 C-101 3 -101 3 -100 1 C-88.14286096 0.86910048 -76.28571682 0.73867473 -64.42856598 0.60884857 C-58.92242682 0.54854605 -53.41628954 0.48808226 -47.91015625 0.42724609 C-42.59336251 0.3685079 -37.27656423 0.31019832 -31.95976257 0.25218201 C-29.93446181 0.23000759 -27.9091627 0.20768048 -25.88386536 0.18519592 C-23.04041975 0.15365486 -20.19696862 0.12266379 -17.35351562 0.09179688 C-16.52200989 0.08244614 -15.69050415 0.0730954 -14.83380127 0.0634613 C-9.88886755 0.01046492 -4.94522176 -0.00830714 0 0 Z M-77 28 C-77.65877117 30.61477014 -78.20895306 33.1651689 -78.6875 35.8125 C-78.82994141 36.52470703 -78.97238281 37.23691406 -79.11914062 37.97070312 C-79.90484665 42.19631613 -79.86551027 44.67244867 -79 49 C-65.8 49 -52.6 49 -39 49 C-36.22130821 42.05327052 -34.40430903 34.54541893 -35 27 C-37.09441119 24.90558881 -41.66665682 25.83585498 -44.55859375 25.83203125 C-45.41808121 25.82870285 -46.27756866 25.82537445 -47.1631012 25.82194519 C-48.98478661 25.8168723 -50.80648136 25.81453698 -52.62817383 25.81469727 C-55.4221929 25.81251197 -58.21581657 25.79436356 -61.00976562 25.77539062 C-62.77604031 25.7724566 -64.54231688 25.77047186 -66.30859375 25.76953125 C-67.14821152 25.76234573 -67.98782928 25.75516022 -68.85289001 25.74775696 C-73.4024276 25.56087869 -73.4024276 25.56087869 -77 28 Z " fill="#2B1B4E" transform="translate(819,160)"/>
<path d="M0 0 C1.25683594 0.00322266 2.51367188 0.00644531 3.80859375 0.00976562 C5.12730469 0.01814453 6.44601562 0.02652344 7.8046875 0.03515625 C9.14452961 0.04017136 10.4843735 0.04473424 11.82421875 0.04882812 C15.10941956 0.06064539 18.39453147 0.07712008 21.6796875 0.09765625 C19.92270413 11.11368567 17.86143575 22.07199431 15.8046875 33.03515625 C15.61393646 34.05333435 15.42318542 35.07151245 15.22665405 36.12054443 C11.74603417 54.67373532 8.14104268 73.20197168 4.4921875 91.72265625 C4.24656067 92.96957245 4.00093384 94.21648865 3.74786377 95.50119019 C0.32193582 112.87824055 -3.14325001 130.24733723 -6.62252808 147.61376953 C-7.81478798 153.56646539 -9.00492027 159.51958668 -10.1953125 165.47265625 C-10.8965625 168.97890625 -11.5978125 172.48515625 -12.3203125 176.09765625 C-22.2203125 176.09765625 -32.1203125 176.09765625 -42.3203125 176.09765625 C-39.45386605 160.33220078 -36.43671072 144.61467851 -33.2578125 128.91015625 C-30.88351569 117.17842495 -28.62898669 105.45773829 -26.75537109 93.63378906 C-24.91471565 82.21971367 -22.44554998 70.93246602 -20.05957031 59.62255859 C-18.93170232 54.24469924 -17.83791649 48.86029227 -16.7578125 43.47265625 C-16.55841064 42.47806396 -16.35900879 41.48347168 -16.15356445 40.45874023 C-14.31739528 31.21988658 -12.60732425 21.95811977 -10.93139648 12.68896484 C-10.73489502 11.60953613 -10.53839355 10.53010742 -10.3359375 9.41796875 C-10.16352539 8.46164551 -9.99111328 7.50532227 -9.81347656 6.52001953 C-9.3203125 4.09765625 -9.3203125 4.09765625 -8.3203125 1.09765625 C-5.50207058 -0.31146471 -3.14779968 -0.01417928 0 0 Z " fill="#2B1B4E" transform="translate(728.3203125,392.90234375)"/>
<path d="M0 0 C-1.38256659 20.76513317 -1.38256659 20.76513317 -5 28 C-38.99 28 -72.98 28 -108 28 C-103 2 -103 2 -102 1 C-99.26421766 0.87476291 -96.55245683 0.81391092 -93.81518555 0.79467773 C-92.95649368 0.78477814 -92.09780182 0.77487854 -91.21308899 0.76467896 C-88.35432748 0.73292413 -85.49554978 0.70823059 -82.63671875 0.68359375 C-80.64906897 0.66301513 -78.66142348 0.64201841 -76.67378235 0.62062073 C-71.41929759 0.56526597 -66.16477199 0.51595935 -60.91021729 0.46777344 C-56.65257892 0.4277782 -52.39498783 0.38369651 -48.137393 0.33933926 C-11.72085432 -0.03996615 -11.72085432 -0.03996615 0 0 Z " fill="#2B1B4E" transform="translate(828,118)"/>
<path d="M0 0 C20.1924235 7.45684675 39.34126858 15.50305161 57 28 C57.75539063 28.53109375 58.51078125 29.0621875 59.2890625 29.609375 C60.86724664 30.72856535 62.43529898 31.86203562 64 33 C60.71579636 37.98183547 57.3129759 42.87326046 53.875 47.75 C53.33746094 48.51699219 52.79992187 49.28398438 52.24609375 50.07421875 C51.72917969 50.80769531 51.21226562 51.54117188 50.6796875 52.296875 C50.21288574 52.96041992 49.74608398 53.62396484 49.26513672 54.30761719 C48 56 48 56 46 58 C45.47277344 57.56171875 44.94554687 57.1234375 44.40234375 56.671875 C28.66639557 44.40232428 8.88510663 35.29503554 -10 29 C-9.383973 23.17661973 -7.21935352 18.17076436 -5 12.8125 C-4.27021768 11.02759534 -3.54102507 9.24244943 -2.8125 7.45703125 C-2.48894531 6.67303955 -2.16539063 5.88904785 -1.83203125 5.08129883 C-1.16368352 3.40944895 -0.5693655 1.70809649 0 0 Z " fill="#2B1B4E" transform="translate(80,65)"/>
<path d="M0 0 C3.40296902 3.22137207 6.24357793 6.77242989 9.0625 10.5 C9.49626953 11.06847656 9.93003906 11.63695312 10.37695312 12.22265625 C12.59881482 15.1377929 14.80541129 18.06428789 17 21 C9.35638389 28.19939794 1.43280499 34.75247293 -7 41 C-8.05574219 41.79019531 -9.11148438 42.58039063 -10.19921875 43.39453125 C-20.38627606 50.90590784 -31.18565978 57.43956859 -42 64 C-46.48531042 59.78499078 -50.1188863 55.09996505 -53.8125 50.1875 C-54.7087207 49.00510742 -54.7087207 49.00510742 -55.62304688 47.79882812 C-57.08546284 45.86843905 -58.54432616 43.93547516 -60 42 C-57.13660884 39.81008206 -54.32584248 38.03865977 -51.125 36.375 C-36.99632112 28.76435164 -24.00135755 19.41560352 -11.66015625 9.1875 C-7.83642968 6.04317272 -3.92613068 3.01488059 0 0 Z " fill="#2B1B4E" transform="translate(594,206)"/>
<path d="M0 0 C3.66910554 1.22303518 4.44441033 2.57239927 6.75 5.625 C16.95816291 18.65238479 30.13442988 28.13720884 44 37 C38.59674899 43.63827981 32.52288015 49.57190027 26.4387207 55.57714844 C24.9535718 57.0459161 23.4757469 58.52179125 22 60 C5.08299793 49.76165406 -9.54240577 37.38324136 -22 22 C-20.52785936 18.36765299 -18.61862655 16.69423177 -15.5 14.375 C-9.86366004 10.02039333 -4.93460513 5.12359001 0 0 Z " fill="#2B1B4E" transform="translate(385,206)"/>
<path d="M0 0 C3.19653477 1.37686238 4.95404184 2.86243897 7.125 5.5625 C16.22179855 16.19786913 26.56779154 22.90638058 39 29 C38.38853634 32.08375535 37.39908159 34.18078851 35.6015625 36.75 C35.12203125 37.4409375 34.6425 38.131875 34.1484375 38.84375 C33.64570312 39.5553125 33.14296875 40.266875 32.625 41 C32.13 41.7115625 31.635 42.423125 31.125 43.15625 C28.80549315 46.48046302 26.4645644 49.78097711 24 53 C4.19768328 47.29424772 -13.4582426 33.74100635 -24 16 C-21.2957059 12.84499022 -17.83972145 11.09073259 -14.25 9.125 C-9.26579426 6.3435951 -4.54866092 3.46564641 0 0 Z " fill="#2B1B4E" transform="translate(779,244)"/>
<path d="" fill="#2B1B4E" transform="translate(0,0)"/>
</svg>
