<?xml version="1.0" encoding="UTF-8"?>
<svg id="_图层_2" data-name="图层 2" xmlns="http://www.w3.org/2000/svg" viewBox="0 0 129.96 68.03">
  <g id="_图层_1-2" data-name="图层 1">
    <g>
      <path d="M129.43,65.42c-7.76-9.16-15.53-18.33-23.31-27.49l-.02-.02c-.85-1-1.34-1.24-2.69-1.34h-.02c-8.87-.65-17.16-.94-26.1-1.57h-.01c-.3-.02-.53-.27-.53-.56v-.02c0-.27,0-.56,0-.83v-.02c0-.3.23-.54.53-.56h.04c8.9-.63,17.15-.92,25.98-1.56h.11c1.35-.11,1.84-.35,2.69-1.35l.02-.02c7.68-9.05,23.29-27.52,23.29-27.52,1.02-1.21.48-2.53-1.1-2.54h-.02c-2.64-.02-5.98-.01-8.61.03h-.02c-1.39.02-1.95.16-3.18.81h-.02c-13.95,7.35-35.21,18.68-49.08,26.18l-.03.02c-.4.22-.77.43-1.01.83-.24.4-.25.83-.26,1.29h0c-.03,2.82-.03,6.84,0,9.64h0c0,.47.02.9.26,1.3.24.4.61.61,1.01.83h.02c13.41,7.26,35.33,18.96,49.1,26.23h.01c1.23.65,1.79.8,3.18.82h.02c2.5.04,5.81.05,8.63.03h.02c1.61-.01,2.16-1.37,1.12-2.6"/>
      <path d="M.53,65.42c7.76-9.16,15.53-18.33,23.31-27.49l.02-.02c.85-1,1.34-1.24,2.69-1.34h.02c8.87-.65,17.16-.94,26.1-1.57h.01c.3-.02.53-.27.53-.56v-.02c0-.27,0-.56,0-.83v-.02c0-.3-.23-.54-.53-.56h-.04c-8.9-.63-17.15-.92-25.98-1.56h-.11c-1.35-.11-1.84-.35-2.69-1.35l-.02-.02C16.16,21.02.56,2.55.56,2.55-.47,1.34.08.02,1.65.01h.02C4.31,0,7.65,0,10.29.04h.02c1.39.02,1.95.16,3.18.81h.02c13.95,7.35,35.21,18.68,49.08,26.18l.03.02c.4.22.78.43,1.01.83.24.4.25.83.26,1.29h0c.03,2.82.03,6.84,0,9.64h0c0,.47-.02.9-.26,1.3-.24.4-.61.61-1.01.83h-.02c-13.41,7.26-35.33,18.96-49.1,26.23h-.01c-1.23.65-1.79.8-3.18.82h-.02c-2.5.04-5.81.05-8.63.03h-.02c-1.61-.01-2.16-1.37-1.12-2.6"/>
    </g>
  </g>
</svg>