<?xml version="1.0" encoding="UTF-8"?>
<svg id="_图层_2" data-name="图层 2" xmlns="http://www.w3.org/2000/svg" viewBox="0 0 252.09 23.27">
  <g id="_图层_1-2" data-name="图层 1">
    <g>
      <path d="M224.88,23.21c-6.56-.02-11.89-5.12-11.88-11.37s5.37-11.33,11.93-11.31l27.16.06v4.14s-27.17-.06-27.17-.06c-4.17,0-7.56,3.21-7.57,7.18s3.37,7.21,7.54,7.22l22.81.05v-5.13s-20.31-.05-20.31-.05v-4.14s24.68.06,24.68.06l-.03,13.41-27.16-.06Z"/>
      <path d="M54.82,22.81l.03-13.41,30.76.07c1.48,0,2.69-1.14,2.7-2.56,0-1.41-1.2-2.57-2.69-2.57l-30.76-.07V.13s30.77.07,30.77.07c3.88,0,7.04,3.03,7.03,6.72s-3.18,6.7-7.06,6.69l-26.41-.06-.02,9.27h-4.35Z"/>
      <g>
        <rect x="125.26" y="-16.54" width="4.14" height="37.81" transform="translate(124.66 129.69) rotate(-89.87)"/>
        <polygon points="108.38 22.93 108.41 9.52 146.21 9.61 146.2 13.75 112.76 13.67 112.75 18.8 146.19 18.88 146.18 23.02 108.38 22.93"/>
      </g>
      <polygon points="193.56 23.13 165.07 5.03 165.03 23.07 160.67 23.06 160.73 .37 165.65 .38 194.13 18.49 194.18 .45 198.53 .46 198.48 23.14 193.56 23.13"/>
      <polygon points="31.88 22.76 19.45 13.78 7.18 22.7 0 22.68 15.86 11.18 .61 0 7.79 .02 19.46 8.59 31.38 .07 38.56 .09 23.05 11.19 39.07 22.77 31.88 22.76"/>
    </g>
  </g>
</svg>